<svg xmlns="http://www.w3.org/2000/svg" xmlns:xlink="http://www.w3.org/1999/xlink" width="500" zoomAndPan="magnify" viewBox="0 0 375 112.499997" height="150" preserveAspectRatio="xMidYMid meet" version="1.0"><defs><g/></defs><g fill="#f1ebe1" fill-opacity="1"><g transform="translate(16.340758, 81.467887)"><g><path d="M -9.09375 -38.609375 L -2.1875 -41.03125 L 19.828125 -24.296875 L 20.09375 -24.390625 L 26.796875 -51.21875 L 32.90625 -53.359375 L 45.984375 -16.15625 L 38.53125 -13.546875 L 29.1875 -40.125 L 28.921875 -40.03125 L 22.65625 -14.546875 L 20.796875 -13.890625 L -0.46875 -29.703125 L -0.84375 -29.5625 L 8.5 -2.984375 L 3.984375 -1.40625 Z M -9.09375 -38.609375 "/></g></g></g><g fill="#f1ebe1" fill-opacity="1"><g transform="translate(59.645804, 65.435192)"><g><path d="M 23.609375 2.078125 C 20.554688 1.953125 17.75 1.289062 15.1875 0.09375 C 12.625 -1.09375 10.421875 -2.664062 8.578125 -4.625 C 6.742188 -6.582031 5.332031 -8.84375 4.34375 -11.40625 C 3.363281 -13.976562 2.929688 -16.710938 3.046875 -19.609375 C 3.160156 -22.503906 3.8125 -25.195312 5 -27.6875 C 6.195312 -30.175781 7.785156 -32.316406 9.765625 -34.109375 C 11.753906 -35.910156 14.078125 -37.300781 16.734375 -38.28125 C 19.390625 -39.269531 22.242188 -39.703125 25.296875 -39.578125 C 28.335938 -39.453125 31.132812 -38.789062 33.6875 -37.59375 C 36.25 -36.40625 38.453125 -34.832031 40.296875 -32.875 C 42.140625 -30.925781 43.550781 -28.664062 44.53125 -26.09375 C 45.519531 -23.519531 45.957031 -20.785156 45.84375 -17.890625 C 45.726562 -14.992188 45.070312 -12.300781 43.875 -9.8125 C 42.6875 -7.332031 41.097656 -5.191406 39.109375 -3.390625 C 37.117188 -1.585938 34.796875 -0.195312 32.140625 0.78125 C 29.492188 1.769531 26.648438 2.203125 23.609375 2.078125 Z M 23.796875 -2.421875 C 25.484375 -2.347656 27.117188 -2.65625 28.703125 -3.34375 C 30.285156 -4.039062 31.703125 -5.066406 32.953125 -6.421875 C 34.210938 -7.773438 35.238281 -9.441406 36.03125 -11.421875 C 36.832031 -13.398438 37.285156 -15.664062 37.390625 -18.21875 C 37.492188 -20.738281 37.226562 -23.023438 36.59375 -25.078125 C 35.957031 -27.128906 35.066406 -28.882812 33.921875 -30.34375 C 32.773438 -31.800781 31.441406 -32.9375 29.921875 -33.75 C 28.398438 -34.5625 26.796875 -35.003906 25.109375 -35.078125 C 23.410156 -35.140625 21.765625 -34.828125 20.171875 -34.140625 C 18.585938 -33.460938 17.164062 -32.441406 15.90625 -31.078125 C 14.644531 -29.710938 13.617188 -28.03125 12.828125 -26.03125 C 12.035156 -24.039062 11.585938 -21.785156 11.484375 -19.265625 C 11.378906 -16.710938 11.640625 -14.414062 12.265625 -12.375 C 12.898438 -10.34375 13.789062 -8.601562 14.9375 -7.15625 C 16.09375 -5.707031 17.429688 -4.570312 18.953125 -3.75 C 20.484375 -2.925781 22.097656 -2.484375 23.796875 -2.421875 Z M 23.796875 -2.421875 "/></g></g></g><g fill="#f1ebe1" fill-opacity="1"><g transform="translate(100.779879, 66.473736)"><g><path d="M 18.484375 -35.078125 L 25.03125 -32.484375 L 34.421875 1.859375 L 34.703125 1.96875 L 45.203125 -24.46875 L 49.90625 -22.59375 L 35.34375 14.046875 L 28.796875 11.4375 L 19.421875 -22.90625 L 19.15625 -23 L 8.640625 3.4375 L 3.921875 1.5625 Z M 18.484375 -35.078125 "/></g></g></g><g fill="#8ba888" fill-opacity="1"><g transform="translate(141.983231, 85.373398)"><g><path d="M 16.90625 -39.4375 L 23.671875 -39.4375 L 39.4375 0 L 30.984375 0 L 27.328125 -9.015625 L 9.859375 -9.015625 L 6.203125 0 L 0.5625 0 Z M 25.640625 -13.796875 L 18.875 -30.703125 L 18.59375 -30.703125 L 11.828125 -13.796875 Z M 25.640625 -13.796875 "/></g></g></g><g fill="#f1ebe1" fill-opacity="1"><g transform="translate(187.470358, 84.003194)"><g><path d="M -10.4375 -38.265625 L 16.34375 -48.734375 L 17.296875 -43.96875 L -1.328125 -36.6875 L 3.59375 -24.078125 L 18.296875 -29.828125 L 19.234375 -25.0625 L 5.328125 -19.625 L 11.28125 -4.40625 L 3.921875 -1.53125 Z M -10.4375 -38.265625 "/></g></g></g><g fill="#f1ebe1" fill-opacity="1"><g transform="translate(215.917434, 72.539459)"><g><path d="M 17.328125 -2.515625 C 14.460938 -1.910156 11.921875 -1.832031 9.703125 -2.28125 C 7.492188 -2.738281 5.613281 -3.363281 4.0625 -4.15625 C 2.269531 -5.070312 0.664062 -6.222656 -0.75 -7.609375 L 1.203125 -10.625 C 2.390625 -9.5625 3.707031 -8.691406 5.15625 -8.015625 C 6.40625 -7.378906 7.878906 -6.882812 9.578125 -6.53125 C 11.285156 -6.1875 13.1875 -6.234375 15.28125 -6.671875 C 18.039062 -7.253906 20.007812 -8.390625 21.1875 -10.078125 C 22.363281 -11.773438 22.722656 -13.726562 22.265625 -15.9375 C 22.015625 -17.070312 21.285156 -17.910156 20.078125 -18.453125 C 18.867188 -19.003906 17.398438 -19.441406 15.671875 -19.765625 C 13.953125 -20.097656 12.109375 -20.421875 10.140625 -20.734375 C 8.179688 -21.046875 6.304688 -21.53125 4.515625 -22.1875 C 2.734375 -22.851562 1.171875 -23.773438 -0.171875 -24.953125 C -1.523438 -26.128906 -2.425781 -27.785156 -2.875 -29.921875 C -3.15625 -31.242188 -3.101562 -32.597656 -2.71875 -33.984375 C -2.332031 -35.367188 -1.632812 -36.671875 -0.625 -37.890625 C 0.375 -39.117188 1.695312 -40.222656 3.34375 -41.203125 C 5 -42.191406 6.96875 -42.929688 9.25 -43.421875 C 11.675781 -43.929688 13.878906 -43.992188 15.859375 -43.609375 C 17.835938 -43.222656 19.539062 -42.675781 20.96875 -41.96875 C 22.632812 -41.175781 24.125 -40.207031 25.4375 -39.0625 L 23.421875 -36.34375 C 22.296875 -37.09375 21.066406 -37.734375 19.734375 -38.265625 C 18.585938 -38.710938 17.285156 -39.070312 15.828125 -39.34375 C 14.378906 -39.613281 12.863281 -39.578125 11.28125 -39.234375 C 9.082031 -38.773438 7.460938 -37.8125 6.421875 -36.34375 C 5.390625 -34.875 5.050781 -33.316406 5.40625 -31.671875 C 5.65625 -30.453125 6.382812 -29.566406 7.59375 -29.015625 C 8.8125 -28.472656 10.28125 -28.023438 12 -27.671875 C 13.71875 -27.316406 15.554688 -27 17.515625 -26.71875 C 19.484375 -26.445312 21.359375 -25.988281 23.140625 -25.34375 C 24.929688 -24.707031 26.5 -23.796875 27.84375 -22.609375 C 29.195312 -21.421875 30.097656 -19.78125 30.546875 -17.6875 C 30.859375 -16.175781 30.816406 -14.628906 30.421875 -13.046875 C 30.023438 -11.460938 29.257812 -9.976562 28.125 -8.59375 C 27 -7.207031 25.53125 -5.976562 23.71875 -4.90625 C 21.914062 -3.832031 19.785156 -3.035156 17.328125 -2.515625 Z M 17.328125 -2.515625 "/></g></g></g><g fill="#f1ebe1" fill-opacity="1"><g transform="translate(247.119602, 65.295526)"><g><path d="M 3.265625 -39.515625 L 11.15625 -39.71875 L 11.5625 -22.828125 L 29.578125 -23.25 L 29.171875 -40.140625 L 37.0625 -40.328125 L 38.015625 -0.90625 L 30.125 -0.71875 L 29.703125 -18.46875 L 11.6875 -18.046875 L 12.109375 -0.296875 L 4.21875 -0.09375 Z M 3.265625 -39.515625 "/></g></g></g><g fill="#f1ebe1" fill-opacity="1"><g transform="translate(285.663785, 64.116646)"><g><path d="M 23.359375 -35.984375 L 30.03125 -34.828125 L 38.859375 6.703125 L 30.53125 5.265625 L 28.46875 -4.25 L 11.25 -7.21875 L 6.109375 1.0625 L 0.546875 0.09375 Z M 27.609375 -9.234375 L 23.8125 -27.046875 L 23.546875 -27.09375 L 14 -11.578125 Z M 27.609375 -9.234375 "/></g></g></g><g fill="#f1ebe1" fill-opacity="1"><g transform="translate(321.617908, 70.0062)"><g><path d="M 17.8125 -35.4375 L 31.265625 -30.390625 C 33.898438 -29.398438 36.085938 -28.226562 37.828125 -26.875 C 39.566406 -25.519531 40.894531 -24.054688 41.8125 -22.484375 C 42.726562 -20.921875 43.25 -19.289062 43.375 -17.59375 C 43.5 -15.90625 43.253906 -14.238281 42.640625 -12.59375 C 41.910156 -10.65625 40.929688 -9.222656 39.703125 -8.296875 C 38.472656 -7.367188 37.269531 -6.726562 36.09375 -6.375 C 34.6875 -5.925781 33.21875 -5.753906 31.6875 -5.859375 L 31.59375 -5.59375 L 36.390625 13.65625 L 28.21875 10.59375 L 24.140625 -6.28125 L 16.390625 -9.203125 L 11.34375 4.25 L 3.953125 1.484375 Z M 24.046875 -11.140625 C 25.242188 -10.691406 26.394531 -10.46875 27.5 -10.46875 C 28.601562 -10.476562 29.625 -10.6875 30.5625 -11.09375 C 31.5 -11.5 32.328125 -12.082031 33.046875 -12.84375 C 33.773438 -13.601562 34.335938 -14.507812 34.734375 -15.5625 C 35.128906 -16.613281 35.300781 -17.65625 35.25 -18.6875 C 35.207031 -19.726562 34.96875 -20.710938 34.53125 -21.640625 C 34.09375 -22.566406 33.457031 -23.394531 32.625 -24.125 C 31.789062 -24.863281 30.773438 -25.457031 29.578125 -25.90625 L 23.515625 -28.1875 L 17.984375 -13.421875 Z M 24.046875 -11.140625 "/></g></g></g></svg>